<svg xmlns="http://www.w3.org/2000/svg" viewBox="0 0 512 512">
  <defs>
    <linearGradient id="grad1" x1="0%" y1="0%" x2="100%" y2="100%">
      <stop offset="0%" style="stop-color:#3b82f6;stop-opacity:1" />
      <stop offset="100%" style="stop-color:#8b5cf6;stop-opacity:1" />
    </linearGradient>
  </defs>
  <rect width="512" height="512" rx="128" fill="url(#grad1)" />
  <path d="M368 256c0-61.9-50.1-112-112-112s-112 50.1-112 112c0 14.6 2.8 28.5 7.9 41.3-19.9-8.4-41.9-13.3-64.9-13.3-68.5 0-125 40.3-149.3 99.7C9.6 364.5 0 331.3 0 296 0 198.9 78.9 120 176 120c15.2 0 29.8 2.3 43.8 6.6C242.3 53.9 316.5 8 400 8c123.7 0 224 100.3 224 224 0 35.3-9.6 68.5-26.3 97.7-24.3-59.4-80.8-99.7-149.3-99.7-23 0-45 4.9-64.9 13.3 5.1-12.8 7.9-26.7 7.9-41.3z" fill="white" opacity="0.5"/>
  <path d="M256 160c53 0 96 43 96 96s-43 96-96 96-96-43-96-96 43-96 96-96z" fill="white"/>
</svg>
